<svg xmlns="http://www.w3.org/2000/svg" xml:space="preserve" style="fill-rule:evenodd;clip-rule:evenodd;stroke-linejoin:round;stroke-miterlimit:2" viewBox="0 0 788 206"><path d="M0 0h1000v1000H0z" style="fill:none" transform="scale(.788 .206)"/><path d="m9 160 14.667 9.75" style="fill:none"/><path d="M30.688 174.418c-.284.427-1.91 2.874-5.339 3.558a8.474 8.474 0 0 1-3.233.021c-2.549-.494-2.371-.958-10.451-6.1-2.478-1.577-5.006-3.073-7.509-4.61-1.366-.839-2.293-2.225-2.447-2.456-1.982-2.964-1.402-5.946-1.302-6.464.702-3.612 3.31-5.356 3.762-5.658.439-.293 2.964-1.982 6.464-1.302 1.131.22 2.224.692 3.203 1.301 2.497 1.552 4.749 3.469 7.165 5.145 7.869 5.46 8.228 5.116 9.669 7.275.282.422 1.909 2.858 1.264 6.214-.317 1.651-.313 1.673-1.246 3.076Z" style="fill:#ffaa28"/><path d="m9 160 14.667 9.75" style="fill:none" transform="matrix(-1 0 0 1 788 -123.75)"/><path d="M30.688 174.418a8.38 8.38 0 0 0 1.214-6.3 8.44 8.44 0 0 0-1.232-2.99c-1.441-2.158-1.8-1.815-9.669-7.275-2.413-1.674-4.771-3.427-7.157-5.14-1.302-.935-2.939-1.253-3.211-1.306-3.5-.68-6.025 1.009-6.464 1.302-3.06 2.046-3.658 5.125-3.762 5.658-.68 3.5 1.009 6.025 1.302 6.464.64.958 1.499 1.783 2.439 2.45 2.398 1.702 5.037 3.037 7.517 4.616 8.08 5.142 7.902 5.606 10.451 6.1.498.096 3.373.654 6.218-1.24 1.4-.931 1.422-.936 2.354-2.339Z" style="fill:#ffaa28" transform="matrix(-1 0 0 1 788 -123.75)"/><path d="M20 991.024C9.514 984.668 2.5 973.147 2.5 960c0-20.007 16.243-36.25 36.25-36.25S75 939.993 75 960c0 13.147-7.014 24.668-17.5 31.024V960c0-10.348-8.402-18.75-18.75-18.75S20 949.652 20 960v31.024Z" style="fill:#ffaa28" transform="matrix(.9619 0 0 1 647.702 -914)"/><path d="M220 680h100v180H220z" style="fill:#ffaa28" transform="matrix(.16833 0 0 .6875 613.073 -421.5)"/><path d="M20 991.024C9.514 984.668 2.5 973.147 2.5 960c0-20.007 16.243-36.25 36.25-36.25S75 939.993 75 960c0 13.147-7.014 24.668-17.5 31.024V960c0-10.348-8.402-18.75-18.75-18.75S20 949.652 20 960v31.024Z" style="fill:#ffaa28" transform="matrix(.9619 0 0 -1 700.606 1129.755)"/><path d="M220 680h100v180H220z" style="fill:#ffaa28" transform="matrix(.16833 0 0 -.6875 665.978 637.255)"/><path d="M20 991.024C9.514 984.668 2.5 973.147 2.5 960c0-20.007 16.243-36.25 36.25-36.25S75 939.993 75 960c0 13.147-7.014 24.668-17.5 31.024V960c0-10.348-8.402-18.75-18.75-18.75S20 949.652 20 960v31.024Z" style="fill:#ffaa28" transform="matrix(.9619 0 0 1 541.892 -914)"/><path d="M220 680h100v180H220z" style="fill:#ffaa28" transform="matrix(.16833 0 0 .6875 507.264 -421.5)"/><path d="M20 991.024C9.514 984.668 2.5 973.147 2.5 960c0-20.007 16.243-36.25 36.25-36.25S75 939.993 75 960c0 13.147-7.014 24.668-17.5 31.024V960c0-10.348-8.402-18.75-18.75-18.75S20 949.652 20 960v31.024Z" style="fill:#ffaa28" transform="matrix(.9619 0 0 -1 594.797 1129.755)"/><path d="M220 680h100v180H220z" style="fill:#ffaa28" transform="matrix(.16833 0 0 -.6875 560.168 637.255)"/><path d="M20 991.024C9.514 984.668 2.5 973.147 2.5 960c0-20.007 16.243-36.25 36.25-36.25S75 939.993 75 960c0 13.147-7.014 24.668-17.5 31.024V960c0-10.348-8.402-18.75-18.75-18.75S20 949.652 20 960v31.024Z" style="fill:#ffaa28" transform="matrix(.9619 0 0 1 436.083 -914)"/><path d="M220 680h100v180H220z" style="fill:#ffaa28" transform="matrix(.16833 0 0 .6875 401.454 -421.5)"/><path d="M20 991.024C9.514 984.668 2.5 973.147 2.5 960c0-20.007 16.243-36.25 36.25-36.25S75 939.993 75 960c0 13.147-7.014 24.668-17.5 31.024V960c0-10.348-8.402-18.75-18.75-18.75S20 949.652 20 960v31.024Z" style="fill:#ffaa28" transform="matrix(.9619 0 0 -1 488.988 1129.755)"/><path d="M220 680h100v180H220z" style="fill:#ffaa28" transform="matrix(.16833 0 0 -.6875 454.36 637.255)"/><path d="M20 991.024C9.514 984.668 2.5 973.147 2.5 960c0-20.007 16.243-36.25 36.25-36.25S75 939.993 75 960c0 13.147-7.014 24.668-17.5 31.024V960c0-10.348-8.402-18.75-18.75-18.75S20 949.652 20 960v31.024Z" style="fill:#ffaa28" transform="matrix(.9619 0 0 1 330.273 -914)"/><path d="M220 680h100v180H220z" style="fill:#ffaa28" transform="matrix(.16833 0 0 .6875 295.645 -421.5)"/><path d="M20 991.024C9.514 984.668 2.5 973.147 2.5 960c0-20.007 16.243-36.25 36.25-36.25S75 939.993 75 960c0 13.147-7.014 24.668-17.5 31.024V960c0-10.348-8.402-18.75-18.75-18.75S20 949.652 20 960v31.024Z" style="fill:#ffaa28" transform="matrix(.9619 0 0 -1 383.178 1129.755)"/><path d="M220 680h100v180H220z" style="fill:#ffaa28" transform="matrix(.16833 0 0 -.6875 348.55 637.255)"/><path d="M20 991.024C9.514 984.668 2.5 973.147 2.5 960c0-20.007 16.243-36.25 36.25-36.25S75 939.993 75 960c0 13.147-7.014 24.668-17.5 31.024V960c0-10.348-8.402-18.75-18.75-18.75S20 949.652 20 960v31.024Z" style="fill:#ffaa28" transform="matrix(.9619 0 0 1 224.464 -914)"/><path d="M220 680h100v180H220z" style="fill:#ffaa28" transform="matrix(.16833 0 0 .6875 189.836 -421.5)"/><path d="M20 991.024C9.514 984.668 2.5 973.147 2.5 960c0-20.007 16.243-36.25 36.25-36.25S75 939.993 75 960c0 13.147-7.014 24.668-17.5 31.024V960c0-10.348-8.402-18.75-18.75-18.75S20 949.652 20 960v31.024Z" style="fill:#ffaa28" transform="matrix(.9619 0 0 -1 277.369 1129.755)"/><path d="M220 680h100v180H220z" style="fill:#ffaa28" transform="matrix(.16833 0 0 -.6875 242.74 637.255)"/><path d="M20 991.024C9.514 984.668 2.5 973.147 2.5 960c0-20.007 16.243-36.25 36.25-36.25S75 939.993 75 960c0 13.147-7.014 24.668-17.5 31.024V960c0-10.348-8.402-18.75-18.75-18.75S20 949.652 20 960v31.024Z" style="fill:#ffaa28" transform="matrix(.9619 0 0 1 118.655 -914)"/><path d="M220 680h100v180H220z" style="fill:#ffaa28" transform="matrix(.16833 0 0 .6875 84.026 -421.5)"/><path d="M20 991.024C9.514 984.668 2.5 973.147 2.5 960c0-20.007 16.243-36.25 36.25-36.25S75 939.993 75 960c0 13.147-7.014 24.668-17.5 31.024V960c0-10.348-8.402-18.75-18.75-18.75S20 949.652 20 960v31.024Z" style="fill:#ffaa28" transform="matrix(.9619 0 0 -1 171.56 1129.755)"/><path d="M220 680h100v180H220z" style="fill:#ffaa28" transform="matrix(.16833 0 0 -.6875 136.93 637.255)"/><path d="M20 991.024C9.514 984.668 2.5 973.147 2.5 960c0-20.007 16.243-36.25 36.25-36.25S75 939.993 75 960c0 13.147-7.014 24.668-17.5 31.024V960c0-10.348-8.402-18.75-18.75-18.75S20 949.652 20 960v31.024Z" style="fill:#ffaa28" transform="matrix(.9619 0 0 1 12.845 -914)"/><path d="M220 680h100v180H220z" style="fill:#ffaa28" transform="matrix(.16833 0 0 .6875 -21.783 -421.5)"/><path d="M20 991.024C9.514 984.668 2.5 973.147 2.5 960c0-20.007 16.243-36.25 36.25-36.25S75 939.993 75 960c0 13.147-7.014 24.668-17.5 31.024V960c0-10.348-8.402-18.75-18.75-18.75S20 949.652 20 960v31.024Z" style="fill:#ffaa28" transform="matrix(.9619 0 0 -1 65.75 1129.755)"/><path d="M220 680h100v180H220z" style="fill:#ffaa28" transform="matrix(.16833 0 0 -.6875 31.121 637.255)"/><path d="M220 680h100v180H220z" style="fill:#ffaa28" transform="matrix(.16833 0 0 .6875 718.883 -421.5)"/><path d="M20 991.024C9.514 984.668 2.5 973.147 2.5 960c0-20.007 16.243-36.25 36.25-36.25S75 939.993 75 960c0 13.147-7.014 24.668-17.5 31.024V960c0-10.348-8.402-18.75-18.75-18.75S20 949.652 20 960v31.024Z" style="fill:#ffc828" transform="translate(657.752 -923.75)"/><path d="M220 680h100v180H220z" style="fill:#ffc828" transform="matrix(.175 0 0 .6875 621.752 -431.25)"/><path d="M20 991.024C9.514 984.668 2.5 973.147 2.5 960c0-20.007 16.243-36.25 36.25-36.25S75 939.993 75 960c0 13.147-7.014 24.668-17.5 31.024V960c0-10.348-8.402-18.75-18.75-18.75S20 949.652 20 960v31.024Z" style="fill:#ffc828" transform="matrix(1 0 0 -1 712.753 1120.005)"/><path d="M220 680h100v180H220z" style="fill:#ffc828" transform="matrix(.175 0 0 -.6875 676.752 627.505)"/><path d="M20 991.024C9.514 984.668 2.5 973.147 2.5 960c0-20.007 16.243-36.25 36.25-36.25S75 939.993 75 960c0 13.147-7.014 24.668-17.5 31.024V960c0-10.348-8.402-18.75-18.75-18.75S20 949.652 20 960v31.024Z" style="fill:#ffc828" transform="translate(547.752 -923.75)"/><path d="M220 680h100v180H220z" style="fill:#ffc828" transform="matrix(.175 0 0 .6875 511.752 -431.25)"/><path d="M20 991.024C9.514 984.668 2.5 973.147 2.5 960c0-20.007 16.243-36.25 36.25-36.25S75 939.993 75 960c0 13.147-7.014 24.668-17.5 31.024V960c0-10.348-8.402-18.75-18.75-18.75S20 949.652 20 960v31.024Z" style="fill:#ffc828" transform="matrix(1 0 0 -1 602.752 1120.005)"/><path d="M220 680h100v180H220z" style="fill:#ffc828" transform="matrix(.175 0 0 -.6875 566.752 627.505)"/><path d="M20 991.024C9.514 984.668 2.5 973.147 2.5 960c0-20.007 16.243-36.25 36.25-36.25S75 939.993 75 960c0 13.147-7.014 24.668-17.5 31.024V960c0-10.348-8.402-18.75-18.75-18.75S20 949.652 20 960v31.024Z" style="fill:#ffc828" transform="translate(437.752 -923.75)"/><path d="M220 680h100v180H220z" style="fill:#ffc828" transform="matrix(.175 0 0 .6875 401.751 -431.25)"/><path d="M20 991.024C9.514 984.668 2.5 973.147 2.5 960c0-20.007 16.243-36.25 36.25-36.25S75 939.993 75 960c0 13.147-7.014 24.668-17.5 31.024V960c0-10.348-8.402-18.75-18.75-18.75S20 949.652 20 960v31.024Z" style="fill:#ffc828" transform="matrix(1 0 0 -1 492.752 1120.005)"/><path d="M220 680h100v180H220z" style="fill:#ffc828" transform="matrix(.175 0 0 -.6875 456.752 627.505)"/><path d="M20 991.024C9.514 984.668 2.5 973.147 2.5 960c0-20.007 16.243-36.25 36.25-36.25S75 939.993 75 960c0 13.147-7.014 24.668-17.5 31.024V960c0-10.348-8.402-18.75-18.75-18.75S20 949.652 20 960v31.024Z" style="fill:#ffc828" transform="translate(327.751 -923.75)"/><path d="M220 680h100v180H220z" style="fill:#ffc828" transform="matrix(.175 0 0 .6875 291.751 -431.25)"/><path d="M20 991.024C9.514 984.668 2.5 973.147 2.5 960c0-20.007 16.243-36.25 36.25-36.25S75 939.993 75 960c0 13.147-7.014 24.668-17.5 31.024V960c0-10.348-8.402-18.75-18.75-18.75S20 949.652 20 960v31.024Z" style="fill:#ffc828" transform="matrix(1 0 0 -1 382.751 1120.005)"/><path d="M220 680h100v180H220z" style="fill:#ffc828" transform="matrix(.175 0 0 -.6875 346.751 627.505)"/><path d="M20 991.024C9.514 984.668 2.5 973.147 2.5 960c0-20.007 16.243-36.25 36.25-36.25S75 939.993 75 960c0 13.147-7.014 24.668-17.5 31.024V960c0-10.348-8.402-18.75-18.75-18.75S20 949.652 20 960v31.024Z" style="fill:#ffc828" transform="translate(217.75 -923.75)"/><path d="M220 680h100v180H220z" style="fill:#ffc828" transform="matrix(.175 0 0 .6875 181.75 -431.25)"/><path d="M20 991.024C9.514 984.668 2.5 973.147 2.5 960c0-20.007 16.243-36.25 36.25-36.25S75 939.993 75 960c0 13.147-7.014 24.668-17.5 31.024V960c0-10.348-8.402-18.75-18.75-18.75S20 949.652 20 960v31.024Z" style="fill:#ffc828" transform="matrix(1 0 0 -1 272.751 1120.005)"/><path d="M220 680h100v180H220z" style="fill:#ffc828" transform="matrix(.175 0 0 -.6875 236.75 627.505)"/><path d="M20 991.024C9.514 984.668 2.5 973.147 2.5 960c0-20.007 16.243-36.25 36.25-36.25S75 939.993 75 960c0 13.147-7.014 24.668-17.5 31.024V960c0-10.348-8.402-18.75-18.75-18.75S20 949.652 20 960v31.024Z" style="fill:#ffc828" transform="translate(107.75 -923.75)"/><path d="M220 680h100v180H220z" style="fill:#ffc828" transform="matrix(.175 0 0 .6875 71.75 -431.25)"/><path d="M20 991.024C9.514 984.668 2.5 973.147 2.5 960c0-20.007 16.243-36.25 36.25-36.25S75 939.993 75 960c0 13.147-7.014 24.668-17.5 31.024V960c0-10.348-8.402-18.75-18.75-18.75S20 949.652 20 960v31.024Z" style="fill:#ffc828" transform="matrix(1 0 0 -1 162.75 1120.005)"/><path d="M220 680h100v180H220z" style="fill:#ffc828" transform="matrix(.175 0 0 -.6875 126.75 627.505)"/><path d="M20 991.024C9.514 984.668 2.5 973.147 2.5 960c0-20.007 16.243-36.25 36.25-36.25S75 939.993 75 960c0 13.147-7.014 24.668-17.5 31.024V960c0-10.348-8.402-18.75-18.75-18.75S20 949.652 20 960v31.024Z" style="fill:#ffc828" transform="translate(-2.25 -923.75)"/><path d="M220 680h100v180H220z" style="fill:#ffc828" transform="matrix(.175 0 0 .6875 -38.25 -431.25)"/><path d="M20 991.024C9.514 984.668 2.5 973.147 2.5 960c0-20.007 16.243-36.25 36.25-36.25S75 939.993 75 960c0 13.147-7.014 24.668-17.5 31.024V960c0-10.348-8.402-18.75-18.75-18.75S20 949.652 20 960v31.024Z" style="fill:#ffc828" transform="matrix(1 0 0 -1 52.75 1120.005)"/><path d="M220 680h100v180H220z" style="fill:#ffc828" transform="matrix(.175 0 0 -.6875 16.75 627.505)"/><path d="M220 680h100v180H220z" style="fill:#ffc828" transform="matrix(.175 0 0 .6875 731.753 -431.25)"/><ellipse cx="35" cy="109.063" rx="10" ry="10.937" style="fill:#ffc828" transform="matrix(.875 0 0 .8 -21.625 72.75)"/><ellipse cx="35" cy="109.063" rx="10" ry="10.937" style="fill:#ffc828" transform="matrix(-.875 0 0 .8 809.623 -51)"/></svg>